<svg width="30" height="24" viewBox="0 0 30 24" fill="none" xmlns="http://www.w3.org/2000/svg">
<path d="M25.3963 2.46222C23.4513 1.56943 21.3987 0.932777 19.2899 0.568222C19.2707 0.564648 19.2509 0.567206 19.2333 0.575532C19.2157 0.583858 19.2012 0.597528 19.1918 0.614597C18.928 1.08372 18.6359 1.6956 18.4314 2.17647C16.1255 1.83122 13.8314 1.83122 11.5729 2.17647C11.3684 1.68485 11.0656 1.08372 10.8008 0.614597C10.7909 0.597917 10.7763 0.584582 10.7588 0.576331C10.7413 0.568081 10.7217 0.565298 10.7026 0.568347C8.59361 0.932055 6.54087 1.56865 4.59613 2.4621C4.57949 2.46921 4.56547 2.4813 4.55601 2.49672C0.666755 8.30722 -0.398745 13.9748 0.124005 19.5722C0.125483 19.5859 0.129696 19.5992 0.136396 19.6112C0.143095 19.6233 0.152143 19.6339 0.163005 19.6423C2.729 21.5268 5.21463 22.6708 7.65413 23.4291C7.6731 23.4348 7.69334 23.4345 7.71215 23.4283C7.73097 23.4222 7.74744 23.4104 7.75938 23.3946C8.33638 22.6066 8.85075 21.7756 9.29188 20.9018C9.29794 20.8899 9.3014 20.8768 9.30204 20.8634C9.30267 20.85 9.30045 20.8366 9.29554 20.8241C9.29063 20.8116 9.28313 20.8003 9.27353 20.791C9.26394 20.7816 9.25247 20.7743 9.23988 20.7697C8.42388 20.4602 7.647 20.0828 6.89963 19.6543C6.886 19.6463 6.87455 19.6351 6.8663 19.6216C6.85804 19.6081 6.85323 19.5928 6.85229 19.5771C6.85135 19.5613 6.85431 19.5455 6.86091 19.5312C6.86751 19.5168 6.87755 19.5043 6.89013 19.4947C7.04738 19.3768 7.20475 19.2543 7.35488 19.1305C7.36822 19.1195 7.38437 19.1124 7.40151 19.1101C7.41865 19.1078 7.43609 19.1103 7.45188 19.1173C12.3616 21.359 17.6769 21.359 22.5286 19.1173C22.5444 19.1098 22.562 19.107 22.5794 19.1091C22.5968 19.1112 22.6132 19.1181 22.6268 19.1292C22.777 19.253 22.9343 19.3768 23.0928 19.4947C23.1054 19.5042 23.1155 19.5166 23.1222 19.5309C23.1288 19.5452 23.1319 19.5609 23.1311 19.5767C23.1303 19.5924 23.1256 19.6077 23.1175 19.6213C23.1094 19.6348 23.098 19.6461 23.0845 19.6542C22.3369 20.0909 21.5537 20.4636 20.7433 20.7685C20.7307 20.7733 20.7192 20.7807 20.7097 20.7902C20.7002 20.7998 20.6928 20.8112 20.688 20.8238C20.6832 20.8364 20.6811 20.8498 20.6819 20.8633C20.6826 20.8767 20.6862 20.8899 20.6924 20.9018C21.1429 21.7743 21.6573 22.6053 22.2236 23.3933C22.2352 23.4096 22.2516 23.4218 22.2705 23.4282C22.2894 23.4346 22.3098 23.4349 22.3289 23.4291C24.7801 22.6707 27.2658 21.5267 29.8318 19.6423C29.8428 19.6343 29.852 19.624 29.8588 19.6121C29.8655 19.6002 29.8696 19.587 29.8709 19.5733C30.4964 13.1021 28.8231 7.48097 25.4353 2.49785C25.4269 2.48166 25.4131 2.46898 25.3963 2.4621V2.46222ZM10.025 16.164C8.54688 16.164 7.32888 14.8068 7.32888 13.1402C7.32888 11.4737 8.52325 10.1166 10.0251 10.1166C11.5386 10.1166 12.7448 11.4856 12.7211 13.1403C12.7211 14.8068 11.5268 16.164 10.025 16.164ZM19.9935 16.164C18.5154 16.164 17.2974 14.8068 17.2974 13.1402C17.2974 11.4737 18.4916 10.1166 19.9935 10.1166C21.507 10.1166 22.7131 11.4856 22.6895 13.1403C22.6895 14.8068 21.507 16.164 19.9935 16.164Z" fill="#00F3CB"/>
</svg>
