<svg width="30" height="30" viewBox="0 0 30 30" fill="none" xmlns="http://www.w3.org/2000/svg">
<path d="M25.5588 25.565H21.1162V18.6038C21.1162 16.9438 21.0825 14.8075 18.8013 14.8075C16.485 14.8075 16.1313 16.6138 16.1313 18.4813V25.565H11.6887V11.25H15.9563V13.2013H16.0138C16.61 12.0763 18.06 10.8888 20.2262 10.8888C24.7275 10.8888 25.56 13.8513 25.56 17.7075V25.565H25.5588ZM6.67125 9.29125C5.24125 9.29125 4.0925 8.13375 4.0925 6.71C4.0925 5.2875 5.2425 4.13125 6.67125 4.13125C8.09625 4.13125 9.25125 5.2875 9.25125 6.71C9.25125 8.13375 8.095 9.29125 6.67125 9.29125ZM8.89875 25.565H4.44375V11.25H8.89875V25.565ZM27.7812 0H2.21375C0.99 0 0 0.9675 0 2.16125V27.8387C0 29.0338 0.99 30 2.21375 30H27.7775C29 30 30 29.0338 30 27.8387V2.16125C30 0.9675 29 0 27.7775 0H27.7812Z" fill="#00F3CB"/>
</svg>
