<svg width="30" height="26" viewBox="0 0 30 26" fill="none" xmlns="http://www.w3.org/2000/svg">
<path d="M29.9412 3.71249C28.8181 4.20699 27.6283 4.53341 26.41 4.68124C27.6926 3.9103 28.653 2.70129 29.1138 1.27749C27.925 1.97124 26.6075 2.47624 25.205 2.75749C24.2797 1.76802 23.0536 1.11176 21.7171 0.890614C20.3805 0.669464 19.0084 0.8958 17.8137 1.53448C16.619 2.17315 15.6686 3.18843 15.1101 4.42264C14.5516 5.65686 14.4162 7.04095 14.725 8.35999C9.6125 8.11874 5.08375 5.66249 2.05 1.95249C1.49849 2.88975 1.21083 3.95877 1.2175 5.04624C1.2175 7.18374 2.305 9.06249 3.9525 10.1662C2.97607 10.1352 2.02121 9.87116 1.1675 9.39624V9.47124C1.16695 10.8917 1.65784 12.2687 2.55688 13.3684C3.45593 14.4682 4.70777 15.2231 6.1 15.505C5.19787 15.7467 4.25302 15.783 3.335 15.6112C3.73015 16.8337 4.49708 17.9024 5.52877 18.6681C6.56046 19.4338 7.80544 19.8583 9.09 19.8825C6.91441 21.5899 4.2281 22.5166 1.4625 22.5137C0.975 22.5137 0.48875 22.485 0 22.43C2.81964 24.2354 6.09814 25.1937 9.44625 25.1912C20.7625 25.1912 26.9438 15.8212 26.9438 7.70999C26.9438 7.44749 26.9438 7.18499 26.925 6.92249C28.1325 6.05357 29.174 4.97476 30 3.73749L29.9412 3.71249Z" fill="#00F3CB"/>
</svg>
